PathFileType	4	(X/Y/Z)	C:/Users/opensim2020/Desktop/walking_exp_matlab/subject03_walking13_straight_02.trc																																																																																																																																								
DataRate	CameraRate	NumFrames	NumMarkers	Units	OrigDataRate	OrigDataStartFrame	OrigNumFrames																																																																																																																																				
100	100	4	46	mm	100	1223	193																																																																																																																																				
Frame#	Time	LFHD			RFHD			LBHD			RBHD			C7			T10			CLAV			STRN			RBAK			LSHO			LUPA			LELB			LFRM			LWRA			LWRB			LFIN			RSHO			RUPA			RELB			RFRM			RWRA			RWRB			RFIN			LASI			RASI			LPSI			RPSI			LTHI			LKNE			LTIB			LANK			LHEE			LTOE			RTHI			RKNE			RTIB			RANK			RHEE			RTOE			*39			*40			*41			*42			*43			*44			*45		
		X1	Y1	Z1	X2	Y2	Z2	X3	Y3	Z3	X4	Y4	Z4	X5	Y5	Z5	X6	Y6	Z6	X7	Y7	Z7	X8	Y8	Z8	X9	Y9	Z9	X10	Y10	Z10	X11	Y11	Z11	X12	Y12	Z12	X13	Y13	Z13	X14	Y14	Z14	X15	Y15	Z15	X16	Y16	Z16	X17	Y17	Z17	X18	Y18	Z18	X19	Y19	Z19	X20	Y20	Z20	X21	Y21	Z21	X22	Y22	Z22	X23	Y23	Z23	X24	Y24	Z24	X25	Y25	Z25	X26	Y26	Z26	X27	Y27	Z27	X28	Y28	Z28	X29	Y29	Z29	X30	Y30	Z30	X31	Y31	Z31	X32	Y32	Z32	X33	Y33	Z33	X34	Y34	Z34	X35	Y35	Z35	X36	Y36	Z36	X37	Y37	Z37	X38	Y38	Z38	X39	Y39	Z39	X40	Y40	Z40	X41	Y41	Z41	X42	Y42	Z42	X43	Y43	Z43	X44	Y44	Z44	X45	Y45	Z45	X46	Y46	Z46
																																																																																																																																											
145	1.44	520.79736	1629.95361	-1460.92468	496.69376	1631.98804	-1329.60095	395.10724	1583.82971	-1479.2229	376.20663	1585.4939	-1349.59302	360.07312	1418.95483	-1422.0719	342.91391	1104.65173	-1420.25244	486.00143	1350.72205	-1410.50818	539.64136	1188.99036	-1415.29688	311.62769	1239.40344	-1328.89893	449.09744	1386.43481	-1569.91907	455.22986	1189.68066	-1644.89319	469.69574	1066.92249	-1656.60571	499.3801	939.62244	-1652.87756	511.40131	820.61859	-1622.48804	503.73303	828.16516	-1677.71667	521.02704	746.37897	-1668.71582	423.98846	1370.66199	-1255.08667	432.81754	1147.50537	-1185.14221	455.7139	1036.60852	-1173.89673	484.96481	902.64746	-1174.4137	527.15741	812.61865	-1210.44861	492.52634	801.91602	-1169.52942	525.62653	734.60199	-1180.51501	513.56641	950.44739	-1534.00232	509.98352	946.81171	-1298.01465	351.32507	969.74158	-1485.95435	350.07495	969.50342	-1337.23059	455.65594	645.23651	-1569.11523	448.85992	470.04642	-1524.81287	382.13092	281.7388	-1527.8728	342.61301	75.40532	-1484.73132	298.93152	42.3075	-1449.66418	492.89972	37.24384	-1455.64197	529.11078	652.52209	-1257.88135	605.39819	490.20679	-1288.19653	519.70325	316.96988	-1286.94592	429.66656	121.47967	-1331.57239	378.43372	102.49034	-1386.04016	546.62396	45.79379	-1341.35474	NaN	NaN	NaN	429.82538	1689.07764	-1425.34827	NaN	NaN	NaN	NaN	NaN	NaN	NaN	NaN	NaN	NaN	NaN	NaN	NaN	NaN	NaN
146	1.45	532.52203	1629.53088	-1460.46777	508.54578	1631.56409	-1329.38403	407.13428	1583.22009	-1479.10925	388.1636	1584.80737	-1349.44446	372.3891	1418.19116	-1421.74548	354.9917	1104.16516	-1420.36426	498.41098	1350.12109	-1410.61145	551.94531	1188.35571	-1416.03772	324.14294	1238.64404	-1329.04797	461.0874	1386.16895	-1569.73853	469.21198	1190.052	-1645.49756	486.7424	1067.8562	-1657.72827	520.40149	941.54004	-1653.62341	536.93524	823.25708	-1622.64685	528.39105	830.21851	-1677.72229	548.97253	749.3288	-1668.6488	436.61395	1369.68127	-1255.03479	443.39124	1146.2655	-1185.36047	464.74747	1035.14856	-1173.99365	491.49533	900.59381	-1174.16846	532.1709	809.82263	-1209.63196	497.21805	799.76624	-1169.00159	528.30792	731.38959	-1180.05652	524.4353	949.3396	-1534.91614	522.99841	946.51355	-1298.76624	362.72647	969.20386	-1485.47229	362.55133	968.88702	-1336.85046	461.83157	644.47333	-1568.98401	452.41672	469.51486	-1524.88464	383.78104	282.16415	-1527.39819	342.77213	76.01951	-1484.31299	299.02957	43.22971	-1449.13062	492.97229	37.14044	-1455.69958	544.57617	653.42468	-1258.09851	621.45288	491.66284	-1289.74585	545.52423	313.02139	-1288.37903	468.5871	111.88743	-1333.5061	418.771	89.71199	-1387.97827	590.69843	44.56064	-1343.47485	NaN	NaN	NaN	441.62659	1688.46216	-1425.1958	NaN	NaN	NaN	NaN	NaN	NaN	NaN	NaN	NaN	NaN	NaN	NaN	NaN	NaN	NaN
147	1.46	544.52759	1629.01831	-1460.49268	520.44318	1630.85974	-1329.23962	419.10455	1582.33142	-1478.95129	400.11124	1583.80188	-1349.38293	384.59589	1417.49426	-1421.51965	367.30692	1103.15649	-1420.04504	510.8342	1349.11035	-1410.67297	564.27197	1187.35315	-1416.75098	336.56079	1237.71423	-1329.31592	473.00122	1385.78076	-1569.7196	483.25699	1190.16907	-1646.19897	503.32306	1068.39746	-1658.72095	541.43933	943.44849	-1654.3252	563.36859	826.52386	-1622.91553	552.95245	832.23834	-1677.54028	576.68671	752.37567	-1668.30847	449.50385	1368.32251	-1254.90186	453.75815	1144.60181	-1185.72302	473.96698	1033.37415	-1173.97949	498.10269	898.34235	-1173.85107	537.10382	806.55542	-1208.98291	501.91882	797.37299	-1168.45801	531.10571	728.39252	-1179.5791	535.336	948.15454	-1535.76404	536.00995	945.93549	-1299.42395	374.08405	968.30243	-1484.83789	375.06558	967.9549	-1336.3739	468.82492	643.9826	-1568.39392	456.22601	468.94128	-1524.94421	385.40988	282.67667	-1527.25781	343.05707	76.70631	-1483.92126	299.19742	44.17596	-1448.70996	492.91125	36.81214	-1455.75049	560.09619	653.83356	-1257.66724	636.91119	492.38327	-1291.04236	571.28766	308.97473	-1289.29626	508.49237	103.10522	-1335.19739	459.71048	77.75859	-1388.37048	634.94757	44.28458	-1345.9397	NaN	NaN	NaN	453.29858	1687.69971	-1425.02295	NaN	NaN	NaN	NaN	NaN	NaN	NaN	NaN	NaN	NaN	NaN	NaN	NaN	NaN	NaN
148	1.47	556.28741	1628.23901	-1460.35022	532.28705	1629.99463	-1329.07825	431.00266	1581.14636	-1478.77515	412.21771	1582.47827	-1349.16858	397.25912	1416.31287	-1420.99426	379.47876	1102.06787	-1419.64722	523.30414	1347.92224	-1410.79382	576.51642	1185.95764	-1417.53845	349.28732	1236.31641	-1329.31543	484.81064	1384.9231	-1569.72717	497.33981	1190.05457	-1646.83203	520.19598	1068.97278	-1659.85742	562.38196	945.29944	-1655.00464	588.66266	829.41321	-1622.79858	577.71002	834.44324	-1677.37793	604.26038	755.50452	-1667.81091	462.45041	1366.74988	-1254.79846	464.60287	1142.85608	-1185.84021	483.37329	1031.39319	-1173.95972	504.91516	895.91333	-1173.63806	542.26556	803.30255	-1208.42017	506.82751	794.8374	-1167.95557	534.32135	725.03992	-1178.96143	546.4577	947.0119	-1536.47839	549.11011	944.94824	-1299.9248	385.55646	967.06891	-1483.94812	387.65771	966.62292	-1335.58948	475.85187	643.54352	-1567.8573	460.49863	468.43118	-1525.19641	387.42453	283.19684	-1527.02417	343.12872	77.3997	-1483.57825	299.35803	45.12504	-1448.07275	493.01953	36.5694	-1455.72913	575.80896	653.99921	-1257.05188	651.65686	492.31403	-1292.13818	597.12823	304.9762	-1290.43494	548.91937	95.22095	-1336.7749	502.58749	66.82812	-1390.94165	678.83093	44.79831	-1348.60779	NaN	NaN	NaN	464.92191	1686.59387	-1424.77112	NaN	NaN	NaN	NaN	NaN	NaN	NaN	NaN	NaN	NaN	NaN	NaN	NaN	NaN	NaN
